<?xml version="1.0" encoding="UTF-8" standalone="no"?>
<svg
   xmlns:dc="http://purl.org/dc/elements/1.1/"
   xmlns:cc="http://creativecommons.org/ns#"
   xmlns:rdf="http://www.w3.org/1999/02/22-rdf-syntax-ns#"
   xmlns:svg="http://www.w3.org/2000/svg"
   xmlns="http://www.w3.org/2000/svg"
   xmlns:sodipodi="http://sodipodi.sourceforge.net/DTD/sodipodi-0.dtd"
   xmlns:inkscape="http://www.inkscape.org/namespaces/inkscape"
   viewBox="0 0 36 36"
   version="1.1"
   id="svg4603"
   sodipodi:docname="farmbot.svg"
   inkscape:version="0.92.4 (5da689c313, 2019-01-14)">
  <metadata
     id="metadata4609">
    <rdf:RDF>
      <cc:Work
         rdf:about="">
        <dc:format>image/svg+xml</dc:format>
        <dc:type
           rdf:resource="http://purl.org/dc/dcmitype/StillImage" />
        <dc:title></dc:title>
      </cc:Work>
    </rdf:RDF>
  </metadata>
  <defs
     id="defs4607" />
  <sodipodi:namedview
     pagecolor="#ffffff"
     bordercolor="#666666"
     borderopacity="1"
     objecttolerance="10"
     gridtolerance="10"
     guidetolerance="10"
     inkscape:pageopacity="0"
     inkscape:pageshadow="2"
     inkscape:window-width="1920"
     inkscape:window-height="1017"
     id="namedview4605"
     showgrid="false"
     inkscape:zoom="9.2709556"
     inkscape:cx="19.694371"
     inkscape:cy="10.103599"
     inkscape:window-x="-8"
     inkscape:window-y="-8"
     inkscape:window-maximized="1"
     inkscape:current-layer="svg4603" />
  <path
     d="M24 7c-3 0-3 1-6 1s-3-1-6-1c-4 0-9 2-9 9 0 11 6 20 10 20 3 0 3-1 5-1s2 1 5 1c4 0 10-9 10-20 0-7.001-5-9-9-9z"
     id="path4597"
     fill="#DD2E44"
     style="fill-opacity:1;fill:#dd2e44" />
  <path
     fill="#77B255"
     d="M19 7s3-4 8-4c4 0 6 2 6 2s-4 3-7 3-7-1-7-1z"
     id="path4599" />
  <path
     fill="#662113"
     d="M18 10c-.552 0-1-.448-1-1 0-3.441 1.2-6.615 3.293-8.707.391-.391 1.023-.391 1.414 0s.391 1.024 0 1.414C19.986 3.427 19 6.085 19 9c0 .552-.448 1-1 1z"
     id="path4601" />
  <g
     id="g5190"
     transform="translate(-58.26493,22.417151)">
    <path
       id="path5172"
       d="m 70.484004,2.8325752 c 0.03527,0.14253 0.916042,3.4868107 5.870294,3.4868107 4.955024,0 5.834972,-3.3442807 5.870273,-3.4868107 0.0432,-0.172788 -0.03375,-0.351946 -0.185877,-0.441127 -0.152935,-0.08838 -0.344291,-0.06211 -0.470564,0.06131 -0.01494,0.01513 -1.532466,1.477854 -5.213832,1.477854 -3.681387,0 -5.199734,-1.462725 -5.213852,-1.477058 -0.07532,-0.07564 -0.175673,-0.115457 -0.276067,-0.115457 -0.06597,0 -0.132545,0.01672 -0.192932,0.05096 -0.153717,0.08918 -0.230571,0.269931 -0.187443,0.443515 z"
       inkscape:connector-curvature="0"
       style="fill:#662113;stroke-width:0.7902422;fill-opacity:1" />
    <ellipse
       id="ellipse5174"
       ry="2.7869008"
       rx="1.9606812"
       cy="-5.2263455"
       cx="71.648659"
       style="fill:#662113;stroke-width:0.7902422;fill-opacity:1" />
    <ellipse
       id="ellipse5176"
       ry="2.7869008"
       rx="1.9606812"
       cy="-5.2263455"
       cx="81.059929"
       style="fill:#662113;stroke-width:0.7902422;fill-opacity:1" />
  </g>
  <g
     inkscape:groupmode="layer"
     id="layer1"
     inkscape:label="smile" />
  <path
     style="opacity:0;fill:#ffff00;fill-opacity:1;stroke:#a58800;stroke-width:0.68817079;stroke-miterlimit:4;stroke-dasharray:none;stroke-opacity:1"
     d="M 12.197841,35.819526 C 9.5142236,35.101522 6.3531259,30.8521 4.6088287,25.617716 3.0774161,21.02217 2.6213008,15.566875 3.5260965,12.667871 4.3824095,9.9242068 6.3733596,8.1186925 9.3951588,7.3454491 10.031741,7.1825551 10.578552,7.1391585 11.982113,7.1401405 c 1.753669,0.00123 1.798527,0.00715 3.060818,0.404489 0.704587,0.2217842 1.420532,0.4032439 1.590991,0.4032439 0.304092,0 0.309923,0.011264 0.309923,0.5986071 0,0.9840101 0.357389,1.4508041 1.110769,1.4508041 0.485708,0 0.938171,-0.4354968 0.93983,-0.9045847 6.47e-4,-0.1847166 0.03127,-0.5178685 0.06804,-0.7403374 0.05298,-0.3205216 0.114758,-0.4044891 0.297606,-0.4044891 0.126911,0 0.586675,-0.098632 1.021696,-0.2191829 l 0.790949,-0.2191829 1.41809,0.2151737 c 2.219425,0.3367639 3.532794,0.3898508 4.530464,0.1831229 l 0.847234,-0.1755559 0.71679,0.377098 c 1.959328,1.030788 3.174618,2.5256917 3.860909,4.7492277 0.290844,0.942316 0.298794,1.036233 0.301034,3.556603 0.0025,2.780602 -0.109746,3.870411 -0.646953,6.282929 -1.503254,6.750892 -5.353411,12.57128 -8.728567,13.195211 -0.846007,0.156393 -2.224849,-0.04518 -3.485357,-0.509525 -0.888513,-0.32731 -1.185889,-0.386361 -1.963901,-0.389976 -0.793597,-0.0037 -1.058947,0.04828 -1.973988,0.386645 -0.926938,0.342759 -2.355352,0.627087 -3.038847,0.604888 -0.120206,-0.0039 -0.48552,-0.07852 -0.811807,-0.165823 z"
     id="path5204"
     inkscape:connector-curvature="0" />
  <path
     style="opacity:0;fill:#ffff00;fill-opacity:1;stroke:#a58800;stroke-width:0.68817079;stroke-miterlimit:4;stroke-dasharray:none;stroke-opacity:1"
     d="M 12.197841,35.819526 C 9.5142236,35.101522 6.3531259,30.8521 4.6088287,25.617716 3.0774161,21.02217 2.6213008,15.566875 3.5260965,12.667871 4.3824095,9.9242068 6.3733596,8.1186925 9.3951588,7.3454491 10.031741,7.1825551 10.578552,7.1391585 11.982113,7.1401405 c 1.753669,0.00123 1.798527,0.00715 3.060818,0.404489 0.704587,0.2217842 1.420532,0.4032439 1.590991,0.4032439 0.304092,0 0.309923,0.011264 0.309923,0.5986071 0,0.9840101 0.357389,1.4508041 1.110769,1.4508041 0.485708,0 0.938171,-0.4354968 0.93983,-0.9045847 6.47e-4,-0.1847166 0.03127,-0.5178685 0.06804,-0.7403374 0.05298,-0.3205216 0.114758,-0.4044891 0.297606,-0.4044891 0.126911,0 0.586675,-0.098632 1.021696,-0.2191829 l 0.790949,-0.2191829 1.41809,0.2151737 c 2.219425,0.3367639 3.532794,0.3898508 4.530464,0.1831229 l 0.847234,-0.1755559 0.71679,0.377098 c 1.959328,1.030788 3.174618,2.5256917 3.860909,4.7492277 0.290844,0.942316 0.298794,1.036233 0.301034,3.556603 0.0025,2.780602 -0.109746,3.870411 -0.646953,6.282929 -1.503254,6.750892 -5.353411,12.57128 -8.728567,13.195211 -0.846007,0.156393 -2.224849,-0.04518 -3.485357,-0.509525 -0.888513,-0.32731 -1.185889,-0.386361 -1.963901,-0.389976 -0.793597,-0.0037 -1.058947,0.04828 -1.973988,0.386645 -0.926938,0.342759 -2.355352,0.627087 -3.038847,0.604888 -0.120206,-0.0039 -0.48552,-0.07852 -0.811807,-0.165823 z"
     id="path5206"
     inkscape:connector-curvature="0" />
  <path
     style="opacity:0;fill:#ffff00;fill-opacity:1;stroke:#a58800;stroke-width:0.68817079;stroke-miterlimit:4;stroke-dasharray:none;stroke-opacity:1"
     d="M 12.197841,35.819526 C 9.5142236,35.101522 6.3531259,30.8521 4.6088287,25.617716 3.0774161,21.02217 2.6213008,15.566875 3.5260965,12.667871 4.3824095,9.9242068 6.3733596,8.1186925 9.3951588,7.3454491 10.031741,7.1825551 10.578552,7.1391585 11.982113,7.1401405 c 1.753669,0.00123 1.798527,0.00715 3.060818,0.404489 0.704587,0.2217842 1.420532,0.4032439 1.590991,0.4032439 0.304092,0 0.309923,0.011264 0.309923,0.5986071 0,0.9840101 0.357389,1.4508041 1.110769,1.4508041 0.485708,0 0.938171,-0.4354968 0.93983,-0.9045847 6.47e-4,-0.1847166 0.03127,-0.5178685 0.06804,-0.7403374 0.05298,-0.3205216 0.114758,-0.4044891 0.297606,-0.4044891 0.126911,0 0.586675,-0.098632 1.021696,-0.2191829 l 0.790949,-0.2191829 1.41809,0.2151737 c 2.219425,0.3367639 3.532794,0.3898508 4.530464,0.1831229 l 0.847234,-0.1755559 0.71679,0.377098 c 1.959328,1.030788 3.174618,2.5256917 3.860909,4.7492277 0.290844,0.942316 0.298794,1.036233 0.301034,3.556603 0.0025,2.780602 -0.109746,3.870411 -0.646953,6.282929 -1.503254,6.750892 -5.353411,12.57128 -8.728567,13.195211 -0.846007,0.156393 -2.224849,-0.04518 -3.485357,-0.509525 -0.888513,-0.32731 -1.185889,-0.386361 -1.963901,-0.389976 -0.793597,-0.0037 -1.058947,0.04828 -1.973988,0.386645 -0.926938,0.342759 -2.355352,0.627087 -3.038847,0.604888 -0.120206,-0.0039 -0.48552,-0.07852 -0.811807,-0.165823 z"
     id="path5208"
     inkscape:connector-curvature="0" />
  <path
     style="opacity:0;fill:#ffff00;fill-opacity:1;stroke:#a58800;stroke-width:0.68817079;stroke-miterlimit:4;stroke-dasharray:none;stroke-opacity:1"
     d="M 12.197841,35.819526 C 9.5142236,35.101522 6.3531259,30.8521 4.6088287,25.617716 3.0774161,21.02217 2.6213008,15.566875 3.5260965,12.667871 4.3824095,9.9242068 6.3733596,8.1186925 9.3951588,7.3454491 10.031741,7.1825551 10.578552,7.1391585 11.982113,7.1401405 c 1.753669,0.00123 1.798527,0.00715 3.060818,0.404489 0.704587,0.2217842 1.420532,0.4032439 1.590991,0.4032439 0.304092,0 0.309923,0.011264 0.309923,0.5986071 0,0.9840101 0.357389,1.4508041 1.110769,1.4508041 0.485708,0 0.938171,-0.4354968 0.93983,-0.9045847 6.47e-4,-0.1847166 0.03127,-0.5178685 0.06804,-0.7403374 0.05298,-0.3205216 0.114758,-0.4044891 0.297606,-0.4044891 0.126911,0 0.586675,-0.098632 1.021696,-0.2191829 l 0.790949,-0.2191829 1.41809,0.2151737 c 2.219425,0.3367639 3.532794,0.3898508 4.530464,0.1831229 l 0.847234,-0.1755559 0.71679,0.377098 c 1.959328,1.030788 3.174618,2.5256917 3.860909,4.7492277 0.290844,0.942316 0.298794,1.036233 0.301034,3.556603 0.0025,2.780602 -0.109746,3.870411 -0.646953,6.282929 -1.503254,6.750892 -5.353411,12.57128 -8.728567,13.195211 -0.846007,0.156393 -2.224849,-0.04518 -3.485357,-0.509525 -0.888513,-0.32731 -1.185889,-0.386361 -1.963901,-0.389976 -0.793597,-0.0037 -1.058947,0.04828 -1.973988,0.386645 -0.926938,0.342759 -2.355352,0.627087 -3.038847,0.604888 -0.120206,-0.0039 -0.48552,-0.07852 -0.811807,-0.165823 z"
     id="path5210"
     inkscape:connector-curvature="0" />
  <path
     style="opacity:0;fill:#f7dfe1;fill-opacity:1;stroke:#662113;stroke-width:0.68817079;stroke-miterlimit:4;stroke-dasharray:none;stroke-opacity:1"
     d="M 12.197841,35.819526 C 9.5142236,35.101522 6.3531259,30.8521 4.6088287,25.617716 3.0774161,21.02217 2.6213008,15.566875 3.5260965,12.667871 4.3824095,9.9242068 6.3733596,8.1186925 9.3951588,7.3454491 10.031741,7.1825551 10.578552,7.1391585 11.982113,7.1401405 c 1.753669,0.00123 1.798527,0.00715 3.060818,0.404489 0.704587,0.2217842 1.420532,0.4032439 1.590991,0.4032439 0.304092,0 0.309923,0.011264 0.309923,0.5986071 0,0.9840101 0.357389,1.4508041 1.110769,1.4508041 0.485708,0 0.938171,-0.4354968 0.93983,-0.9045847 6.47e-4,-0.1847166 0.03127,-0.5178685 0.06804,-0.7403374 0.05298,-0.3205216 0.114758,-0.4044891 0.297606,-0.4044891 0.126911,0 0.586675,-0.098632 1.021696,-0.2191829 l 0.790949,-0.2191829 1.41809,0.2151737 c 2.219425,0.3367639 3.532794,0.3898508 4.530464,0.1831229 l 0.847234,-0.1755559 0.71679,0.377098 c 1.959328,1.030788 3.174618,2.5256917 3.860909,4.7492277 0.290844,0.942316 0.298794,1.036233 0.301034,3.556603 0.0025,2.780602 -0.109746,3.870411 -0.646953,6.282929 -1.503254,6.750892 -5.353411,12.57128 -8.728567,13.195211 -0.846007,0.156393 -2.224849,-0.04518 -3.485357,-0.509525 -0.888513,-0.32731 -1.185889,-0.386361 -1.963901,-0.389976 -0.793597,-0.0037 -1.058947,0.04828 -1.973988,0.386645 -0.926938,0.342759 -2.355352,0.627087 -3.038847,0.604888 -0.120206,-0.0039 -0.48552,-0.07852 -0.811807,-0.165823 z"
     id="path5212"
     inkscape:connector-curvature="0" />
</svg>
